<svg xmlns="http://www.w3.org/2000/svg" width="263.144" height="163.286" viewBox="0 0 69.624 43.203"><defs><pattern patternUnits="userSpaceOnUse" width="65" height="1" patternTransform="scale(10)" id="a"><path fill="#4c4c4c" d="M0 -0.5H1V1.5H0z"/></pattern></defs><g transform="matrix(.26458 0 0 .26458 -.544 -232.5)"><path fill="none" stroke="#4c4c4c" stroke-width="1.711" d="M2.911 879.599H264.345V1041.174H2.911z"/><circle r="65.714" cy="448.076" cx="325.714" transform="matrix(.89162 0 0 .89162 -117.612 573.997)" fill="url(#a)" stroke="#4c4c4c" stroke-width="2"/><g style="line-height:125%"><path d="m 13.505656,889.67595 h -1.428371 v -0.90965 h 5.773628 v 0.90965 h -1.435889 v 5.61575 c -5e-6,1.39831 0.21801,2.37812 0.654044,2.93944 0.436023,0.55632 1.182785,0.83447 2.240288,0.83447 1.032428,0 1.764155,-0.28066 2.195182,-0.84198 0.436019,-0.56634 0.654033,-1.54365 0.654044,-2.93193 v -5.61575 H 20.73021 v -0.90965 h 3.909228 v 0.90965 h -1.43589 v 5.77363 c -1.1e-5,1.71405 -0.370886,2.93693 -1.112626,3.66866 -0.741761,0.72671 -1.987199,1.09007 -3.73632,1.09007 -1.73911,0 -2.982043,-0.36837 -3.728801,-1.10511 -0.746766,-0.73674 -1.120147,-1.95962 -1.120145,-3.66866 v -5.75859" style="-inkscape-font-specification:'Serif Bold'" font-weight="700" font-size="15.396" font-family="Serif" letter-spacing="0" word-spacing="0" fill="#e36a5c"/></g><g style="line-height:125%"><path d="m 89.150819,907.84412 v -0.90965 h 0.917165 l 4.224973,-10.31435 h 1.796741 l 4.232492,10.31435 h 1.06752 v 0.90965 h -5.254905 v -0.90965 h 1.097591 l -0.924683,-2.29291 h -4.217455 l -0.939719,2.29291 h 1.338159 v 0.90965 h -3.337879 m 3.307808,-4.11221 h 3.480716 l -1.729081,-4.29263 -1.751635,4.29263" style="-inkscape-font-specification:'Serif Bold'" font-weight="700" font-size="15.396" font-family="Serif" letter-spacing="0" word-spacing="0" fill="#e36a5c"/></g><g style="line-height:125%"><path d="m 167.48884,907.84412 v -0.90965 h 1.43589 v -9.4047 h -1.43589 v -0.90965 h 6.6532 c 1.36823,10e-6 2.39565,0.23056 3.08228,0.69163 0.68661,0.4611 1.02992,1.15524 1.02993,2.08242 -1e-5,0.66658 -0.23807,1.19533 -0.71418,1.58624 -0.47113,0.39093 -1.17278,0.63651 -2.10497,0.73674 1.12765,0.10526 1.99219,0.40597 2.59362,0.90213 0.60141,0.49618 0.90212,1.15523 0.90213,1.97717 -1e-5,1.11263 -0.42101,1.93206 -1.26298,2.4583 -0.83699,0.52625 -2.15009,0.78937 -3.9393,0.78937 h -6.23973 m 4.33022,-6.54044 h 0.98483 c 0.86202,0 1.50103,-0.15536 1.91702,-0.4661 0.41597,-0.31574 0.62396,-0.79688 0.62397,-1.44341 -1e-5,-0.65153 -0.20298,-1.12515 -0.60893,-1.42085 -0.40096,-0.29569 -1.04498,-0.44354 -1.93206,-0.44355 h -0.98483 v 3.77391 m 0,5.63079 h 1.07504 c 0.95725,0 1.66642,-0.19045 2.12752,-0.57135 0.46108,-0.3809 0.69162,-0.96979 0.69163,-1.76667 -10e-6,-0.80189 -0.23306,-1.4008 -0.69915,-1.79674 -0.46611,-0.39593 -1.17277,-0.5939 -2.12,-0.5939 h -1.07504 v 4.72866" style="-inkscape-font-specification:'Serif Bold'" font-weight="700" font-size="15.396" font-family="Serif" letter-spacing="0" word-spacing="0" fill="#e36a5c"/></g><circle r="65.714" cy="448.076" cx="325.714" transform="matrix(.89162 0 0 .89162 -193.612 573.997)" fill="url(#a)" stroke="#4c4c4c" stroke-width="2"/><path d="m 99.769284,915.39435 c 5.669206,0.3807 11.332806,1.5451 16.440236,3.38 5.01393,1.8014 12.35334,5.8621 16.05486,8.8829 l 1.02885,0.8397 -2.9327,2.9757 c -7.77491,7.8889 -12.82846,17.03452 -15.51485,28.07795 -1.08934,4.47814 -1.50119,8.25821 -1.49775,13.74674 0.007,11.31922 2.87021,21.34178 8.92549,31.24416 2.17886,3.5632 4.32209,6.2635 7.8536,9.8951 1.74745,1.797 3.10948,3.3201 3.02673,3.3847 -11.36841,8.8772 -22.90804,12.9703 -36.566444,12.9703 -18.547162,0 -35.454312,-8.4762 -46.427792,-23.2762 -10.45817,-14.1049 -13.97446,-32.54107 -9.41798,-49.37901 5.49029,-20.28874 21.69326,-36.14124 42.057182,-41.14764 4.93802,-1.214 12.31466,-1.907 16.970568,-1.5944 z" fill="#b2e5e8"/></g></svg>